<svg width="30" height="30" viewBox="0 0 30 30" fill="none" xmlns="http://www.w3.org/2000/svg">
<path d="M29.9699 0.771211C30.0295 0.592559 29.9995 0.396152 29.8894 0.24334C29.7793 0.0905273 29.6024 0 29.4141 0H12.3047C12.1164 0 11.9395 0.0905273 11.8294 0.24334C11.7193 0.396094 11.6893 0.592559 11.7488 0.771211L12.8677 4.1277C12.1269 7.15775 11.7188 10.6453 11.7188 13.9723V15.5312C10.4391 14.9971 9.00152 14.7656 7.61719 14.7656C2.73967 14.7656 0 17.4966 0 19.4531C0 20.0905 0.405117 21.0815 1.17188 21.5715V23.0696C0.489902 23.3114 0 23.9627 0 24.7266C0 25.4904 0.489902 26.1417 1.17188 26.3836V27.0703C1.17188 28.6857 2.48613 30 4.10156 30H18.2227C18.5462 30 18.8086 29.7376 18.8086 29.4141C18.8086 29.0905 18.5462 28.8281 18.2227 28.8281H13.475C13.8437 28.3381 14.0625 27.7294 14.0625 27.0703V26.3836C14.7445 26.1417 15.2344 25.4904 15.2344 24.7266C15.2344 23.9627 14.7445 23.3114 14.0625 23.0695V21.5714C14.8293 21.0815 15.2344 20.0904 15.2344 19.4531C15.2344 18.3105 14.3245 17.0341 12.8906 16.1342V13.9723C12.8906 10.8391 13.2619 7.5624 13.9382 4.6875H27.7805C28.4568 7.56229 28.8281 10.839 28.8281 13.9723V28.8281H23.4961C23.1725 28.8281 22.9102 29.0905 22.9102 29.4141C22.9102 29.7376 23.1725 30 23.4961 30H29.4141C29.7376 30 30 29.7376 30 29.4141V13.9723C30 10.6451 29.5919 7.15764 28.8511 4.1277L29.9699 0.771211ZM15.5859 1.17188V1.75781C15.5859 2.08137 15.8483 2.34375 16.1719 2.34375C16.4954 2.34375 16.7578 2.08137 16.7578 1.75781V1.17188H20.2734V1.75781C20.2734 2.08137 20.5358 2.34375 20.8594 2.34375C21.1829 2.34375 21.4453 2.08137 21.4453 1.75781V1.17188H24.9609V1.75781C24.9609 2.08137 25.2233 2.34375 25.5469 2.34375C25.8704 2.34375 26.1328 2.08137 26.1328 1.75781V1.17188H28.6011L27.8198 3.51562H13.8989L13.1177 1.17188H15.5859ZM4.10156 28.8281C3.1323 28.8281 2.34375 28.0396 2.34375 27.0703V26.4844H12.8906V27.0703C12.8906 28.0396 12.1021 28.8281 11.1328 28.8281H4.10156ZM13.4766 25.3125H1.75781C1.43473 25.3125 1.17188 25.0496 1.17188 24.7266C1.17188 24.4035 1.43473 24.1406 1.75781 24.1406H13.4766C13.7996 24.1406 14.0625 24.4035 14.0625 24.7266C14.0625 25.0496 13.7996 25.3125 13.4766 25.3125ZM12.8906 22.9688H11.4949L10.909 21.7969H12.8906V22.9688ZM9.59883 21.7969L10.1848 22.9688H8.56523L7.9793 21.7969H9.59883ZM6.66914 21.7969L7.25508 22.9688H5.63555L5.04961 21.7969H6.66914ZM3.73945 21.7969L4.32539 22.9688H2.34375V21.7969H3.73945ZM14.0625 19.4531C14.0625 19.7634 13.7975 20.4116 13.3596 20.625H1.87477C1.43689 20.4116 1.17188 19.7634 1.17188 19.4531C1.17188 18.5817 2.2943 17.0842 4.6875 16.3526V17.6953C4.6875 18.0189 4.94982 18.2812 5.27344 18.2812C5.59705 18.2812 5.85938 18.0189 5.85938 17.6953V16.0789C6.23877 16.0158 6.63018 15.9732 7.03125 15.9526V18.8672C7.03125 19.1907 7.29357 19.4531 7.61719 19.4531C7.9408 19.4531 8.20312 19.1907 8.20312 18.8672V15.9526C8.6042 15.9733 8.99566 16.0159 9.375 16.079V17.6953C9.375 18.0189 9.63732 18.2812 9.96094 18.2812C10.2846 18.2812 10.5469 18.0189 10.5469 17.6953V16.354C12.1496 16.8476 14.0625 18.1223 14.0625 19.4531Z" fill="#A87C4F"/>
<path d="M23.2031 5.85938H18.5156C18.1921 5.85938 17.9297 6.12176 17.9297 6.44531C17.9297 6.76887 18.1921 7.03125 18.5156 7.03125H23.2031C23.5267 7.03125 23.7891 6.76887 23.7891 6.44531C23.7891 6.12176 23.5267 5.85938 23.2031 5.85938Z" fill="#A87C4F"/>
<path d="M18.5156 24.9609C18.8392 24.9609 19.1016 24.6986 19.1016 24.375V19.0108C20.4759 18.5825 21.4453 16.7029 21.4453 15V11.4844C21.4453 11.1608 21.1829 10.8984 20.8594 10.8984C20.5358 10.8984 20.2734 11.1608 20.2734 11.4844V14.4141H19.1016V11.4844C19.1016 11.1608 18.8392 10.8984 18.5156 10.8984C18.1921 10.8984 17.9297 11.1608 17.9297 11.4844V14.4141H16.7578V11.4844C16.7578 11.1608 16.4954 10.8984 16.1719 10.8984C15.8483 10.8984 15.5859 11.1608 15.5859 11.4844V15C15.5859 16.7029 16.5553 18.5824 17.9297 19.0108V24.375C17.9297 24.6986 18.1921 24.9609 18.5156 24.9609ZM16.8069 15.5854H20.2245C20.0261 16.8082 19.2528 17.9297 18.5156 17.9297C17.7785 17.9297 17.0051 16.8082 16.8069 15.5854Z" fill="#A87C4F"/>
<path d="M22.6172 11.4844V24.375C22.6172 24.6986 22.8796 24.9609 23.2031 24.9609C23.5267 24.9609 23.7891 24.6986 23.7891 24.375V20.8594C23.7891 19.8901 24.5776 19.1016 25.5469 19.1016C25.8704 19.1016 26.1328 18.8392 26.1328 18.5156V13.8281C26.1328 12.2127 24.8186 10.8984 23.2031 10.8984C22.8796 10.8984 22.6172 11.1608 22.6172 11.4844ZM23.7891 12.1707C24.4712 12.4126 24.9609 13.0642 24.9609 13.8281V17.9886C24.5283 18.0768 24.1298 18.2607 23.7891 18.517V12.1707Z" fill="#A87C4F"/>
<path d="M20.8594 30C21.183 30 21.4453 29.7377 21.4453 29.4141C21.4453 29.0905 21.183 28.8281 20.8594 28.8281C20.5358 28.8281 20.2734 29.0905 20.2734 29.4141C20.2734 29.7377 20.5358 30 20.8594 30Z" fill="#A87C4F"/>
</svg>
