<svg width="37" height="32" viewBox="0 0 37 32" fill="none" xmlns="http://www.w3.org/2000/svg">
<path d="M33.4345 14.4363H24.7418C24.0757 14.4354 23.4372 14.1704 22.9662 13.6994C22.4953 13.2283 22.2304 12.5898 22.2297 11.9237V3.56613C22.2304 2.88586 22.501 2.23364 22.9819 1.75256C23.4629 1.27149 24.1151 1.00084 24.7953 1H33.4345C34.1148 1.00084 34.7669 1.27149 35.2479 1.75256C35.7289 2.23364 35.9994 2.88586 36.0001 3.56613V11.8701C35.9994 12.5504 35.7289 13.2026 35.2479 13.6837C34.7669 14.1648 34.1148 14.4354 33.4345 14.4363V14.4363ZM24.7953 2.0606C24.3963 2.06116 24.0137 2.21998 23.7316 2.50221C23.4494 2.78445 23.2908 3.16706 23.2903 3.56613V11.9237C23.2908 12.3085 23.4438 12.6775 23.7159 12.9497C23.988 13.2219 24.3569 13.3751 24.7418 13.3757H33.4345C33.8336 13.3751 34.2161 13.2163 34.4982 12.934C34.7804 12.6518 34.9391 12.2692 34.9395 11.8701V3.56613C34.9392 3.16702 34.7806 2.78432 34.4984 2.50206C34.2162 2.21979 33.8336 2.06102 33.4345 2.0606H24.7953Z" fill="white" stroke="white" stroke-width="0.4"/>
<path d="M30.2616 18.8015H20.7273C20.5867 18.8015 20.4518 18.7456 20.3523 18.6461C20.2529 18.5467 20.197 18.4118 20.197 18.2711V15.8689C20.198 15.2082 20.4609 14.5748 20.9281 14.1076C21.3953 13.6404 22.0287 13.3774 22.6894 13.3765H30.2616C30.9223 13.3774 31.5557 13.6404 32.0229 14.1076C32.4901 14.5748 32.7531 15.2082 32.754 15.8689V16.3085C32.7532 16.9693 32.4903 17.6028 32.0231 18.0702C31.5559 18.5375 30.9224 18.8005 30.2616 18.8015ZM21.2571 17.7408H30.2616C30.6414 17.7408 31.0055 17.59 31.2741 17.3215C31.5426 17.053 31.6934 16.6888 31.6934 16.309V15.8694C31.6934 15.4897 31.5426 15.1255 31.2741 14.857C31.0055 14.5885 30.6414 14.4376 30.2616 14.4376H22.6894C22.3097 14.4376 21.9455 14.5885 21.677 14.857C21.4085 15.1255 21.2576 15.4897 21.2576 15.8694L21.2571 17.7408Z" fill="white" stroke="white" stroke-width="0.4"/>
<path d="M33.5993 27.0873H10.2199C10.0792 27.0873 9.94435 27.0314 9.8449 26.932C9.74545 26.8325 9.68958 26.6976 9.68958 26.557C9.68958 26.4163 9.74545 26.2814 9.8449 26.182C9.94435 26.0825 10.0792 26.0267 10.2199 26.0267H33.5993C33.9481 26.0264 34.283 25.8904 34.5332 25.6473C34.7833 25.4043 34.929 25.0734 34.9394 24.7248C34.1667 19.7161 30.3151 18.8252 30.1513 18.7902C30.0136 18.7612 29.893 18.6787 29.8162 18.5609C29.7393 18.443 29.7124 18.2995 29.7413 18.1618C29.7703 18.0241 29.8528 17.9035 29.9706 17.8267C30.0885 17.7498 30.2321 17.7229 30.3698 17.7518C30.4175 17.7619 35.1244 18.8125 35.9941 24.6092C35.9979 24.6353 35.9999 24.6618 36 24.6882C35.9988 25.3244 35.7455 25.9342 35.2955 26.3839C34.8455 26.8336 34.2355 27.0866 33.5993 27.0873V27.0873Z" fill="white" stroke="white" stroke-width="0.4"/>
<path d="M20.7273 27.0873C20.6274 27.0872 20.5295 27.0589 20.445 27.0056C20.3604 26.9523 20.2927 26.8762 20.2495 26.7861C20.2063 26.696 20.1895 26.5955 20.2009 26.4963C20.2124 26.397 20.2517 26.303 20.3142 26.225C23.5655 22.1735 20.4733 18.7743 20.3402 18.6322C20.2441 18.5293 20.1929 18.3925 20.1977 18.2518C20.2025 18.1111 20.263 17.9781 20.3659 17.8821C20.4688 17.786 20.6056 17.7347 20.7463 17.7396C20.887 17.7444 21.02 17.8049 21.116 17.9078C21.1547 17.9497 24.9607 22.13 21.1415 26.889C21.0917 26.951 21.0287 27.001 20.957 27.0353C20.8853 27.0696 20.8068 27.0874 20.7273 27.0873V27.0873Z" fill="white" stroke="white" stroke-width="0.4"/>
<path d="M26.9059 31.2299C25.6662 31.2285 24.4776 30.7354 23.6009 29.8588C22.7243 28.9821 22.2311 27.7935 22.2297 26.5537C22.2297 26.4131 22.2856 26.2782 22.3851 26.1788C22.4845 26.0793 22.6194 26.0234 22.76 26.0234C22.9007 26.0234 23.0356 26.0793 23.135 26.1788C23.2345 26.2782 23.2903 26.4131 23.2903 26.5537C23.2845 27.0322 23.3738 27.507 23.5529 27.9508C23.732 28.3945 23.9973 28.7982 24.3336 29.1386C24.6699 29.479 25.0704 29.7492 25.5119 29.9337C25.9534 30.1181 26.4272 30.2131 26.9057 30.2131C27.3842 30.2131 27.8579 30.1181 28.2994 29.9337C28.7409 29.7492 29.1414 29.479 29.4777 29.1386C29.814 28.7982 30.0794 28.3945 30.2585 27.9508C30.4376 27.507 30.5268 27.0322 30.521 26.5537C30.521 26.4131 30.5769 26.2782 30.6763 26.1788C30.7758 26.0793 30.9107 26.0234 31.0513 26.0234C31.1919 26.0234 31.3268 26.0793 31.4263 26.1788C31.5257 26.2782 31.5816 26.4131 31.5816 26.5537C31.5803 27.7935 31.0873 28.9821 30.2108 29.8587C29.3342 30.7354 28.1457 31.2285 26.9059 31.2299V31.2299Z" fill="white" stroke="white" stroke-width="0.4"/>
<path d="M29.1151 22.9444H26.6667C26.526 22.9444 26.3911 22.8885 26.2917 22.7891C26.1922 22.6896 26.1364 22.5547 26.1364 22.4141C26.1364 22.2734 26.1922 22.1386 26.2917 22.0391C26.3911 21.9397 26.526 21.8838 26.6667 21.8838H29.114C29.2546 21.8838 29.3895 21.9397 29.489 22.0391C29.5884 22.1386 29.6443 22.2734 29.6443 22.4141C29.6443 22.5547 29.5884 22.6896 29.489 22.7891C29.3895 22.8885 29.2546 22.9444 29.114 22.9444H29.1151Z" fill="white" stroke="white" stroke-width="0.4"/>
<path d="M5.87886 31.4321C4.91489 31.4329 3.97233 31.1479 3.17035 30.6131C2.36837 30.0782 1.74299 29.3176 1.3733 28.4273C1.00361 27.5371 0.906202 26.5572 1.0934 25.6116C1.2806 24.666 1.74399 23.7971 2.42499 23.1148C3.10598 22.4326 3.97399 21.9676 4.91926 21.7786C5.86452 21.5897 6.84459 21.6853 7.73553 22.0533C8.62646 22.4214 9.38826 23.0453 9.92458 23.8463C10.4609 24.6473 10.7477 25.5893 10.7486 26.5533C10.7472 27.8453 10.234 29.084 9.3213 29.9984C8.4086 30.9128 7.17079 31.4283 5.87886 31.4321V31.4321ZM5.87886 22.7452C5.12425 22.7444 4.38637 22.9674 3.75859 23.3862C3.13082 23.8049 2.64139 24.4004 2.35226 25.0975C2.06312 25.7945 1.98727 26.5616 2.13432 27.3017C2.28137 28.0419 2.6447 28.7217 3.17832 29.2553C3.71195 29.7888 4.39187 30.1521 5.13202 30.299C5.87218 30.446 6.6393 30.37 7.33627 30.0808C8.03324 29.7915 8.62873 29.302 9.04737 28.6742C9.466 28.0464 9.68896 27.3084 9.68801 26.5538C9.68549 25.5444 9.28335 24.5771 8.56952 23.8633C7.8557 23.1496 6.88828 22.7476 5.87886 22.7452V22.7452Z" fill="white" stroke="white" stroke-width="0.4"/>
<path d="M13.9586 27.0838C13.8754 27.0838 13.7933 27.0642 13.719 27.0265C13.6447 26.9889 13.5803 26.9343 13.5311 26.8672C13.4818 26.8001 13.4491 26.7223 13.4354 26.6401C13.4218 26.558 13.4278 26.4738 13.4527 26.3944C13.708 25.5923 13.7866 24.7444 13.6833 23.909C13.5799 23.0736 13.297 22.2705 12.8539 21.5548C12.4108 20.8391 11.8181 20.2278 11.1164 19.7628C10.4148 19.2979 9.62078 18.9902 8.78899 18.8611C7.95721 18.732 7.10733 18.7844 6.29772 19.0148C5.4881 19.2451 4.73793 19.648 4.09872 20.1956C3.45951 20.7433 2.9464 21.4228 2.59462 22.1876C2.24284 22.9523 2.06073 23.7841 2.06079 24.6258C2.057 24.9318 2.08562 25.2374 2.14617 25.5374C2.15401 25.5733 2.15792 25.6099 2.15784 25.6466C2.15798 25.7877 2.10229 25.9231 2.00293 26.0233C1.90357 26.1234 1.76861 26.1802 1.62754 26.1812C1.49853 26.1815 1.37383 26.1348 1.2768 26.0497C1.17977 25.9647 1.11706 25.8472 1.10042 25.7193C1.03072 25.359 0.997141 24.9927 1.00019 24.6258C1.00037 23.6312 1.21578 22.6484 1.63162 21.7448C2.04746 20.8413 2.65388 20.0385 3.40927 19.3914C4.16466 18.7443 5.05111 18.2684 6.00779 17.9962C6.96446 17.7241 7.9687 17.6622 8.95156 17.8147C9.93442 17.9673 10.8726 18.3307 11.7018 18.8801C12.5309 19.4295 13.2314 20.1517 13.7551 20.9973C14.2788 21.8429 14.6133 22.7918 14.7357 23.7789C14.858 24.766 14.7654 25.7678 14.464 26.7157C14.4296 26.8227 14.3622 26.916 14.2713 26.9821C14.1805 27.0483 14.071 27.0839 13.9586 27.0838Z" fill="white" stroke="white" stroke-width="0.4"/>
<path d="M14.2577 25.1563C14.1171 25.1563 13.9822 25.1005 13.8827 25.001C13.7833 24.9016 13.7274 24.7667 13.7274 24.626V14.7423C13.7441 13.7424 13.4157 12.7674 12.7975 11.9814C12.1793 11.1955 11.3091 10.6466 10.3335 10.4272L10.298 10.4208L8.41008 18.3934C8.39519 18.4623 8.36671 18.5275 8.3263 18.5853C8.28589 18.6431 8.23437 18.6922 8.17475 18.7298C8.11512 18.7675 8.0486 18.7928 7.97906 18.8044C7.90952 18.816 7.83837 18.8137 7.76976 18.7974C7.70115 18.7812 7.63646 18.7515 7.57948 18.71C7.5225 18.6685 7.47437 18.616 7.4379 18.5557C7.40144 18.4953 7.37737 18.4283 7.3671 18.3586C7.35684 18.2888 7.36058 18.2177 7.37812 18.1495L9.37417 9.71235C9.40192 9.58804 9.47418 9.47816 9.57733 9.40343C9.68048 9.32871 9.8074 9.29429 9.93417 9.30667C10.1317 9.32257 10.3284 9.34841 10.5233 9.38409C11.7484 9.63783 12.8459 10.3128 13.625 11.2917C14.4041 12.2705 14.8156 13.4915 14.788 14.7423V24.626C14.788 24.7667 14.7322 24.9016 14.6327 25.001C14.5333 25.1005 14.3984 25.1563 14.2577 25.1563Z" fill="white" stroke="white" stroke-width="0.4"/>
<path d="M16.4355 10.3651H7.89395C7.7533 10.3651 7.61842 10.3093 7.51897 10.2098C7.41952 10.1104 7.36365 9.97547 7.36365 9.83483V5.48636C7.36365 5.34571 7.41952 5.21083 7.51897 5.11138C7.61842 5.01193 7.7533 4.95605 7.89395 4.95605H9.67948C10.4791 4.95704 11.2457 5.27516 11.8111 5.84064C12.3765 6.40612 12.6945 7.17277 12.6953 7.97241V9.30241H16.4355C16.5762 9.30241 16.711 9.35828 16.8105 9.45773C16.9099 9.55718 16.9658 9.69206 16.9658 9.83271C16.9658 9.97335 16.9099 10.1082 16.8105 10.2077C16.711 10.3071 16.5762 10.363 16.4355 10.363V10.3651ZM8.42425 9.30453H11.6347V7.97453C11.6341 7.4561 11.428 6.95905 11.0614 6.59241C10.6949 6.22578 10.1979 6.01948 9.67948 6.01878H8.42425V9.30453Z" fill="white" stroke="white" stroke-width="0.4"/>
<path d="M35.4698 6.40533H22.76C22.6194 6.40533 22.4845 6.34946 22.3851 6.25001C22.2856 6.15056 22.2297 6.01567 22.2297 5.87503C22.2297 5.73438 22.2856 5.5995 22.3851 5.50005C22.4845 5.4006 22.6194 5.34473 22.76 5.34473H35.4698C35.6104 5.34473 35.7453 5.4006 35.8448 5.50005C35.9442 5.5995 36.0001 5.73438 36.0001 5.87503C36.0001 6.01567 35.9442 6.15056 35.8448 6.25001C35.7453 6.34946 35.6104 6.40533 35.4698 6.40533Z" fill="white" stroke="white" stroke-width="0.4"/>
<path d="M5.87381 29.0183C5.38692 29.0184 4.91093 28.8741 4.50604 28.6037C4.10116 28.3333 3.78556 27.9488 3.59916 27.499C3.41276 27.0492 3.36393 26.5543 3.45886 26.0767C3.55378 25.5992 3.78819 25.1605 4.13244 24.8162C4.47669 24.4718 4.91531 24.2373 5.39284 24.1423C5.87037 24.0473 6.36536 24.096 6.8152 24.2823C7.26504 24.4686 7.64953 24.7841 7.92004 25.189C8.19056 25.5938 8.33494 26.0697 8.33494 26.5566C8.33424 27.2092 8.07474 27.8348 7.61335 28.2963C7.15197 28.7578 6.52638 29.0174 5.87381 29.0183ZM5.87381 25.1561C5.59667 25.156 5.32571 25.2381 5.09523 25.392C4.86474 25.5459 4.68508 25.7647 4.57898 26.0208C4.47287 26.2768 4.44508 26.5585 4.49912 26.8304C4.55316 27.1022 4.68661 27.3519 4.88259 27.5479C5.07856 27.7438 5.32825 27.8773 5.60008 27.9313C5.87191 27.9854 6.15366 27.9576 6.40969 27.8515C6.66572 27.7454 6.88453 27.5657 7.03844 27.3352C7.19235 27.1047 7.27444 26.8338 7.27434 26.5566C7.27392 26.1853 7.12623 25.8293 6.86367 25.5668C6.60111 25.3042 6.24513 25.1565 5.87381 25.1561V25.1561Z" fill="white" stroke="white" stroke-width="0.4"/>
</svg>
