<svg width="20" height="22" viewBox="0 0 20 22" fill="none" xmlns="http://www.w3.org/2000/svg">
<path d="M4 1L1 5V19C1 19.5304 1.21071 20.0391 1.58579 20.4142C1.96086 20.7893 2.46957 21 3 21H17C17.5304 21 18.0391 20.7893 18.4142 20.4142C18.7893 20.0391 19 19.5304 19 19V5L16 1H4Z" stroke="black" stroke-width="2" stroke-linecap="round" stroke-linejoin="round"/>
<path d="M0.999878 5.00012H18.9999" stroke="black" stroke-width="2" stroke-linecap="round" stroke-linejoin="round"/>
<path d="M13.9999 9.00012C13.9999 10.061 13.5785 11.0784 12.8283 11.8285C12.0782 12.5787 11.0607 13.0001 9.99988 13.0001C8.93901 13.0001 7.9216 12.5787 7.17145 11.8285C6.42131 11.0784 5.99988 10.061 5.99988 9.00012" stroke="black" stroke-width="2" stroke-linecap="round" stroke-linejoin="round"/>
</svg>
