<svg width="21" height="21" viewBox="0 0 21 21" fill="none" xmlns="http://www.w3.org/2000/svg">
<path d="M20.506 18.805L15.9721 14.2711C17.0636 12.8179 17.6529 11.0492 17.6509 9.2317C17.6509 4.58938 13.874 0.8125 9.2317 0.8125C4.58938 0.8125 0.8125 4.58938 0.8125 9.2317C0.8125 13.874 4.58938 17.6509 9.2317 17.6509C11.0492 17.6529 12.8179 17.0636 14.2711 15.9721L18.805 20.506C19.0345 20.7111 19.3338 20.8206 19.6415 20.812C19.9492 20.8034 20.242 20.6773 20.4597 20.4597C20.6773 20.242 20.8034 19.9492 20.812 19.6415C20.8206 19.3338 20.7111 19.0345 20.506 18.805ZM3.21799 9.2317C3.21799 8.0423 3.57068 6.87961 4.23148 5.89066C4.89227 4.90171 5.83149 4.13092 6.93035 3.67575C8.02921 3.22059 9.23837 3.1015 10.4049 3.33354C11.5715 3.56558 12.643 4.13833 13.484 4.97936C14.3251 5.82039 14.8978 6.89194 15.1299 8.05848C15.3619 9.22503 15.2428 10.4342 14.7876 11.533C14.3325 12.6319 13.5617 13.5711 12.5727 14.2319C11.5838 14.8927 10.4211 15.2454 9.2317 15.2454C7.63735 15.2435 6.10885 14.6093 4.98147 13.4819C3.8541 12.3546 3.2199 10.826 3.21799 9.2317Z" fill="#2B2B2B"/>
</svg>
