<svg width="30" height="30" viewBox="0 0 30 30" fill="none" xmlns="http://www.w3.org/2000/svg">
<g clip-path="url(#clip0_1_4508)">
<path d="M27.8373 19.564H30C29.6385 22.8192 29.2787 26.0583 28.918 29.3053H1.08288C0.722935 26.0681 0.362702 22.8285 0 19.5671C0.717563 19.5664 1.42583 19.5656 2.13425 19.5649C2.12699 19.6268 2.12002 19.6888 2.11247 19.7506C2.07138 20.0849 2.02985 20.419 1.98934 20.7532C1.94361 21.1303 1.89816 21.5075 1.85416 21.8849C1.84894 21.9297 1.85344 21.9758 1.85344 22.0309C1.93199 22.0309 1.98949 22.0309 2.04684 22.0309C2.64055 22.0319 3.23412 22.033 3.82783 22.034C3.87124 22.034 3.91465 22.0353 3.95807 22.0357C4.29057 22.0393 4.62307 22.043 4.95557 22.0466H5.09612C5.16886 21.209 5.24045 20.3864 5.31188 19.5637C5.37461 19.5645 5.43748 19.5659 5.5002 19.5659C7.93399 19.5659 10.3676 19.5659 12.8014 19.5659C12.9511 19.5659 13.1008 19.5648 13.2505 19.5642C13.2618 19.9912 13.273 20.4184 13.2845 20.8545C13.3488 20.8574 13.396 20.8622 13.4429 20.8611C13.6595 20.8561 13.876 20.8457 14.0927 20.8441C14.8881 20.8381 15.6834 20.8349 16.479 20.8306C16.5079 20.8306 16.5366 20.8306 16.5655 20.8307C16.6441 20.8049 16.6189 20.7375 16.6198 20.685C16.6258 20.3102 16.6291 19.9354 16.6333 19.5605C16.667 19.5623 16.7008 19.5656 16.7345 19.5656C19.3485 19.5656 21.9626 19.5652 24.5766 19.5649C24.6489 20.3799 24.7211 21.1947 24.7944 22.0206C24.8626 22.0237 24.9242 22.0287 24.9859 22.0287C25.7064 22.0295 26.4267 22.0296 27.1472 22.0293C27.4228 22.0293 27.6982 22.0273 27.9738 22.0263C28.0406 22.0299 28.039 21.9833 28.0362 21.9387C28.0266 21.78 28.0168 21.6213 28.0053 21.4628C27.9845 21.1746 27.9661 20.8859 27.9404 20.5981C27.9096 20.2531 27.8721 19.9089 27.8374 19.5642L27.8373 19.564ZM2.21846 23.7206C2.05294 24.6933 1.888 25.6619 1.72116 26.6414H2.66015C2.73377 26.1629 2.80666 25.6893 2.87954 25.2157C2.88768 25.2141 2.89595 25.2125 2.90408 25.2109C3.06874 25.6868 3.23339 26.1629 3.39935 26.6425H4.21071C4.26661 26.4831 4.32222 26.3244 4.37812 26.1656C4.43577 26.0015 4.49065 25.8364 4.55207 25.6736C4.60986 25.5203 4.64848 25.3588 4.7385 25.1821C4.79542 25.6925 4.84812 26.1657 4.9004 26.6347C5.13329 26.6649 5.8086 26.6549 5.90763 26.6209C5.7405 25.6565 5.57338 24.6915 5.40539 23.7215H4.25732C4.1143 24.1922 3.97172 24.6612 3.82913 25.1303C3.81984 25.1307 3.81069 25.1312 3.8014 25.1316C3.65954 24.6597 3.51754 24.1878 3.37713 23.7206H2.2189H2.21846ZM8.85904 26.6663C9.37449 26.6663 9.87208 26.6665 10.3695 26.6662C10.442 26.6662 10.5147 26.6666 10.5869 26.6613C10.8572 26.6414 11.1243 26.6039 11.377 26.4975C11.7397 26.3449 11.9946 26.0905 12.1174 25.7125C12.1917 25.4836 12.2009 25.2473 12.1822 25.0099C12.1356 24.4212 11.7845 23.9824 11.2144 23.826C11.026 23.7743 10.8252 23.7492 10.6293 23.7454C10.0787 23.7348 9.52767 23.7415 8.9768 23.7419C8.93963 23.7419 8.90231 23.7463 8.85919 23.749V26.6662L8.85904 26.6663ZM24.2355 24.386C24.1261 24.3202 24.0375 24.251 23.9375 24.2105C23.7358 24.1287 23.5216 24.1219 23.3096 24.1607C22.9247 24.2309 22.6873 24.4773 22.5598 24.8326C22.4167 25.2316 22.412 25.6388 22.5417 26.0424C22.6651 26.4269 22.9279 26.6642 23.3318 26.7166C23.6587 26.759 23.9727 26.7294 24.2001 26.4417C24.204 26.4366 24.2165 26.4384 24.23 26.4361C24.2337 26.5113 24.2373 26.586 24.2409 26.6626H25.1246V23.7361C24.9238 23.705 24.3388 23.7143 24.2355 23.7517V24.386ZM15.203 25.3872C15.203 25.3485 15.2044 25.3098 15.2027 25.2713C15.1766 24.6676 14.7912 24.2134 14.1997 24.0847C13.9751 24.0358 13.7491 24.0299 13.5229 24.0609C12.9118 24.145 12.5485 24.5112 12.4361 24.9996C12.3998 25.1575 12.3867 25.3253 12.3928 25.4873C12.4149 26.0622 12.765 26.5012 13.3098 26.6544C13.584 26.7315 13.8627 26.7378 14.142 26.6881C14.3537 26.6505 14.5512 26.5747 14.7224 26.4411C15.0653 26.1735 15.1957 25.8079 15.2028 25.3872H15.203ZM19.3408 24.9487C19.3585 24.9039 19.3701 24.861 19.3915 24.8236C19.4551 24.7126 19.5542 24.6619 19.6813 24.6692C19.7947 24.6757 19.8869 24.7214 19.9403 24.8267C19.9904 24.9253 19.9718 25.0003 19.8714 25.0403C19.802 25.0679 19.7219 25.0769 19.6463 25.079C19.4138 25.0859 19.1823 25.0985 18.9584 25.1662C18.5409 25.2922 18.349 25.5631 18.3648 25.9961C18.3766 26.3212 18.5717 26.5833 18.8863 26.6682C19.2405 26.7639 19.5757 26.7221 19.8734 26.4885C19.8973 26.4696 19.927 26.458 19.9602 26.4395C19.9721 26.5171 19.982 26.581 19.9913 26.6419H20.8535C20.8535 26.5227 20.8533 26.4127 20.8535 26.3026C20.8545 25.8676 20.8731 25.4317 20.852 24.9977C20.8282 24.5062 20.5892 24.2517 20.107 24.1575C19.8149 24.1003 19.5207 24.1071 19.228 24.1629C19.0797 24.191 18.9375 24.2359 18.8098 24.3182C18.5839 24.464 18.4837 24.6747 18.4837 24.9488H19.3408V24.9487ZM16.3827 26.6695C16.3827 26.6115 16.3827 26.5686 16.3827 26.5259C16.3827 26.168 16.3823 25.8103 16.3833 25.4523C16.3834 25.3848 16.384 25.3163 16.3943 25.2498C16.4248 25.0531 16.5645 24.9305 16.7598 24.9227C16.9719 24.9142 17.0998 25.0054 17.1508 25.2107C17.1679 25.2801 17.1745 25.3538 17.1749 25.4256C17.1772 25.7931 17.1761 26.1606 17.1761 26.5283C17.1761 26.5744 17.1761 26.6206 17.1761 26.6633H18.0779C18.0779 26.0768 18.0876 25.5014 18.0738 24.9266C18.0669 24.6404 17.9047 24.4289 17.6543 24.2903C17.2777 24.082 16.6812 24.1668 16.4136 24.4605C16.3968 24.4791 16.3734 24.4917 16.3317 24.5234V24.2447H15.4995C15.4719 24.4506 15.4812 26.5653 15.5098 26.6694H16.3827V26.6695ZM28.1768 24.9212C28.1798 24.8962 28.1846 24.8778 28.184 24.8595C28.1746 24.5016 27.9704 24.2461 27.6114 24.1501C27.3564 24.082 27.0952 24.0702 26.8343 24.0949C26.6409 24.1132 26.4578 24.1727 26.2885 24.2745C25.8522 24.5367 25.8456 25.2588 26.3299 25.4833C26.4861 25.5557 26.6547 25.6025 26.8196 25.6549C26.948 25.6956 27.0808 25.7226 27.209 25.7635C27.2937 25.7905 27.3451 25.8521 27.3454 25.9478C27.3457 26.0466 27.2951 26.1105 27.2105 26.1526C27.0418 26.2366 26.8488 26.1628 26.7813 25.9871C26.7641 25.9427 26.753 25.8959 26.7395 25.8519C26.5494 25.8239 25.9718 25.8325 25.8776 25.864C25.8636 26.3168 26.1227 26.5993 26.4907 26.6755C26.6831 26.7153 26.8823 26.7328 27.0791 26.7388C27.3067 26.7458 27.5319 26.7124 27.7454 26.6232C28.1013 26.4747 28.278 26.2013 28.2639 25.8175C28.2568 25.6216 28.1789 25.4568 28.0154 25.3497C27.9122 25.282 27.7946 25.2295 27.6763 25.1933C27.4827 25.1342 27.2826 25.0969 27.0871 25.0443C27.0182 25.0259 26.9501 24.9963 26.8892 24.9595C26.8218 24.9189 26.7949 24.8512 26.8132 24.7712C26.8305 24.6956 26.8861 24.6567 26.9557 24.644C27.0168 24.6329 27.0805 24.6342 27.1433 24.6333C27.2317 24.632 27.2886 24.6808 27.321 24.7582C27.343 24.8109 27.3579 24.8665 27.3761 24.9214H28.1763L28.1768 24.9212ZM8.49373 25.0716C8.48255 24.687 8.24718 24.3581 7.87519 24.2063C7.58175 24.0865 7.27567 24.0528 6.96582 24.121C6.46068 24.2323 6.12063 24.5312 5.98502 25.0377C5.91358 25.3041 5.93013 25.5739 5.99852 25.8403C6.11105 26.2791 6.39389 26.5505 6.82716 26.6627C7.10202 26.7339 7.38283 26.7311 7.66073 26.6782C7.77326 26.6569 7.8871 26.6238 7.99018 26.5746C8.31485 26.4196 8.55166 25.9965 8.51028 25.6652H7.64563C7.6362 25.7112 7.63068 25.7493 7.62066 25.786C7.56476 25.9935 7.42116 26.0883 7.20815 26.0593C7.04771 26.0373 6.93823 25.934 6.9031 25.7544C6.85649 25.5152 6.85852 25.274 6.89801 25.0339C6.93939 24.7821 7.10332 24.6591 7.40156 24.7448C7.509 24.7756 7.57405 24.8456 7.59844 24.9549C7.60745 24.9953 7.62037 25.0348 7.63053 25.0716H8.49358H8.49373ZM21.2692 26.6634H22.1788C22.2064 26.4419 22.1973 23.8369 22.1684 23.7284H21.2693V26.6634H21.2692ZM25.3999 23.7278V24.5704H25.8986C25.9808 24.2895 26.0612 24.0142 26.1449 23.7278H25.3999ZM28.7517 23.6959C28.7815 23.5096 28.7734 23.2024 28.7377 23.11H28.5871C28.5533 23.2394 28.5202 23.366 28.4872 23.4925C28.4805 23.4926 28.4738 23.4928 28.4672 23.4929C28.433 23.3647 28.3988 23.2365 28.3658 23.1129H28.193V23.704C28.2386 23.6987 28.2733 23.6944 28.323 23.6885V23.4112C28.3574 23.4569 28.3681 23.5031 28.3797 23.5488C28.3924 23.5989 28.4057 23.6487 28.4168 23.6907C28.5088 23.7209 28.547 23.6943 28.5596 23.6121C28.5717 23.5339 28.5967 23.4576 28.616 23.3805C28.6254 23.3818 28.635 23.3831 28.6444 23.3845V23.6958H28.7516L28.7517 23.6959ZM27.6651 23.2083C27.7201 23.2131 27.767 23.2172 27.8316 23.2227V23.7033C27.8816 23.6975 27.9124 23.694 27.9553 23.6891V23.2227C28.0154 23.2169 28.0623 23.2125 28.1152 23.2075V23.1054C27.9783 23.1054 27.8443 23.1039 27.7104 23.106C27.6453 23.107 27.6469 23.1497 27.6649 23.2085L27.6651 23.2083Z" fill="#EF3F43"/>
<path d="M5.31187 19.5635C5.24044 20.386 5.169 21.2087 5.09611 22.0464C5.04704 22.0464 5.0013 22.0464 4.95556 22.0464C4.93044 22.0295 4.9075 22.004 4.87991 21.9971C4.43169 21.888 3.98303 21.7802 3.53394 21.6745C3.36043 21.6337 3.33923 21.5999 3.36987 21.4277C3.39266 21.3005 3.40559 21.1713 3.41764 21.0425C3.43971 20.8083 3.45568 20.5733 3.47862 20.3393C3.50446 20.0768 3.53525 19.8147 3.56399 19.5525C3.57547 19.4475 3.58534 19.3422 3.5987 19.2374C3.62469 19.0329 3.65431 18.8289 3.67914 18.6244C3.70237 18.4339 3.71965 18.2425 3.74317 18.052C3.76829 17.8474 3.79718 17.6434 3.8252 17.4391C3.85119 17.2492 3.8782 17.0594 3.90477 16.8695C3.93613 16.6462 3.96808 16.423 3.99857 16.1997C4.03095 15.962 4.05955 15.7239 4.0944 15.4867C4.12707 15.2638 4.16714 15.0419 4.20112 14.8192C4.23509 14.5963 4.26196 14.3723 4.29826 14.1498C4.34995 13.8327 4.40831 13.5168 4.46233 13.2001C4.53318 12.784 4.59707 12.3665 4.67373 11.9514C4.75127 11.5315 4.8365 11.1127 4.92609 10.6953C5.09451 9.91124 5.26352 9.12732 5.44241 8.34558C5.52923 7.96604 5.63871 7.59158 5.73774 7.21479C5.91531 6.53977 6.11656 5.87215 6.34713 5.21325C6.5414 4.65787 6.75179 4.1099 6.99543 3.57369C7.18158 3.16394 7.39763 2.7722 7.63619 2.39222C7.87591 2.0105 8.15759 1.66319 8.51695 1.38542C8.78469 1.17852 9.07465 1.02446 9.42298 1.01125C9.49296 1.00864 9.53507 0.97684 9.54887 0.899305C9.58066 0.719841 9.62306 0.542265 9.65834 0.363383C9.68056 0.250565 9.69755 0.136876 9.717 0.023477C10.162 0.000681039 10.5642 0.136731 10.941 0.359608C11.3631 0.609201 11.7055 0.948672 12.0056 1.33127C12.1717 1.54296 12.3141 1.77165 12.4618 1.99728C13.0567 2.90665 13.4477 3.90662 13.7996 4.92358C14.2408 6.19812 14.5592 7.5062 14.8172 8.82909C14.8557 9.02612 14.8831 9.22533 14.9156 9.42352C14.9243 9.49961 14.9406 9.57569 14.9408 9.65192C14.9421 13.09 14.9419 16.5282 14.9419 19.9663C14.9336 19.9545 14.9191 19.9436 14.918 19.9314C14.896 19.6972 14.8729 19.463 14.8558 19.2285C14.8417 19.0366 14.8353 18.8442 14.8252 18.6521C14.8242 18.6329 14.8208 18.6138 14.8186 18.5946C14.8017 18.4421 14.7816 18.29 14.7685 18.1371C14.7548 17.9743 14.7489 17.8107 14.737 17.6478C14.7288 17.5329 14.7176 17.4181 14.7052 17.3035C14.6884 17.1463 14.6673 16.9893 14.6521 16.8319C14.6386 16.6932 14.6347 16.5536 14.6194 16.4152C14.5947 16.1913 14.5614 15.9683 14.5367 15.7444C14.5041 15.4486 14.4771 15.1523 14.4468 14.8564C14.4365 14.7562 14.4241 14.6561 14.4108 14.5562C14.3854 14.3662 14.3565 14.1767 14.3331 13.9863C14.3096 13.7958 14.2959 13.604 14.2694 13.4141C14.2164 13.0343 14.1567 12.6555 14.1015 12.2761C14.0594 11.9865 14.0238 11.696 13.9784 11.4071C13.9373 11.1466 13.8859 10.8878 13.8406 10.6279C13.7507 10.1128 13.6726 9.59544 13.5701 9.08289C13.4478 8.47089 13.3105 7.86164 13.1699 7.25356C12.9986 6.51276 12.801 5.77865 12.5658 5.05542C12.393 4.52386 12.2052 3.99737 11.9725 3.48773C11.7136 2.92088 11.4421 2.3626 11.039 1.87909C10.7645 1.54979 10.4633 1.25605 10.0555 1.09576C9.89429 1.03245 9.73051 0.981196 9.54233 1.03289V1.84846C9.30203 1.85775 9.10848 1.96912 8.93759 2.12782C8.76988 2.28376 8.63645 2.46743 8.51753 2.66199C8.23861 3.11791 8.03722 3.60955 7.86066 4.1115C7.44162 5.30327 7.15007 6.52931 6.90396 7.7661C6.74279 8.57572 6.59977 9.38926 6.46067 10.2029C6.35482 10.8216 6.26553 11.4432 6.17333 12.0641C6.10596 12.5178 6.04251 12.9723 5.98283 13.4272C5.91749 13.9252 5.85709 14.424 5.79741 14.9227C5.74398 15.3688 5.69331 15.8151 5.64336 16.2616C5.59675 16.6792 5.55218 17.097 5.50804 17.5151C5.47203 17.8561 5.4366 18.1973 5.40393 18.5387C5.37126 18.8801 5.34237 19.2217 5.31187 19.5632V19.5635Z" fill="#FEBD12"/>
<path d="M27.8373 19.5641C27.8719 19.9086 27.9093 20.253 27.9402 20.598C27.9659 20.8858 27.9844 21.1745 28.0051 21.4627C28.0165 21.6212 28.0265 21.7799 28.0361 21.9386C28.0388 21.9832 28.0403 22.0298 27.9736 22.0262C27.887 22.0024 27.8009 21.9757 27.7133 21.9552C27.306 21.8604 26.8986 21.7669 26.4909 21.6739C26.3319 21.6376 26.3159 21.6231 26.2939 21.4575C26.2882 21.4146 26.2936 21.3705 26.2905 21.3271C26.2801 21.1736 26.2709 21.02 26.256 20.8668C26.242 20.7238 26.2182 20.5816 26.2046 20.4385C26.1816 20.1995 26.1641 19.9599 26.1429 19.7206C26.1336 19.6155 26.1215 19.5105 26.1089 19.4057C26.0832 19.1915 26.0543 18.9776 26.0303 18.7632C26.0072 18.558 25.9908 18.3521 25.9676 18.1471C25.9422 17.9232 25.912 17.6999 25.8847 17.4762C25.8631 17.2999 25.8448 17.1232 25.821 16.9472C25.7966 16.7667 25.7639 16.5873 25.7407 16.4066C25.7071 16.1448 25.6827 15.8819 25.6476 15.6204C25.6156 15.3829 25.5724 15.1469 25.5377 14.9097C25.4863 14.5584 25.4421 14.2062 25.3874 13.8555C25.3252 13.4575 25.2556 13.0606 25.1877 12.6635C25.1191 12.2614 25.0529 11.8589 24.9782 11.458C24.9088 11.0853 24.8326 10.7138 24.754 10.3429C24.6218 9.71814 24.4917 9.09264 24.3484 8.47032C24.2427 8.01106 24.1249 7.55427 23.999 7.1001C23.846 6.5482 23.6841 5.99863 23.5154 5.45124C23.4275 5.16593 23.3236 4.88497 23.2148 4.60678C23.0711 4.23885 22.9282 3.86961 22.7612 3.51199C22.6021 3.17136 22.4188 2.84133 22.2347 2.51318C22.0431 2.17154 21.7983 1.86561 21.5284 1.58392C21.3933 1.44308 21.2266 1.33026 21.0652 1.21759C20.8056 1.03653 20.5165 0.939394 20.1954 0.954931C20.1532 0.803055 20.1105 0.651324 20.069 0.499157C20.0237 0.333488 19.9795 0.167528 19.9348 0.00171289C20.4908 -0.00874128 21.0027 0.147926 21.4835 0.415814C21.9709 0.687333 22.3796 1.05483 22.7452 1.47212C23.3848 2.20188 23.8654 3.03328 24.2839 3.90301C24.8044 4.98531 25.2098 6.11203 25.5622 7.25851C25.9683 8.5798 26.305 9.91924 26.5787 11.2735C26.773 12.2341 26.9517 13.1982 27.1205 14.1636C27.2376 14.8343 27.3316 15.5092 27.4255 16.1835C27.5254 16.901 27.6162 17.6199 27.7049 18.3389C27.7551 18.7465 27.7936 19.1554 27.8373 19.5637V19.5641Z" fill="#FEBD12"/>
<path d="M9.71696 0.0237324C9.69765 0.137131 9.68052 0.25082 9.6583 0.363638C9.62302 0.542521 9.58062 0.720097 9.54882 0.89956C9.53503 0.977095 9.49292 1.00875 9.42294 1.01151C9.07461 1.02472 8.78465 1.17877 8.51691 1.38568C8.15755 1.66344 7.87586 2.01075 7.63614 2.39247C7.39758 2.77245 7.18153 3.1642 6.99539 3.57394C6.75189 4.11015 6.5415 4.65813 6.34709 5.21351C6.11651 5.87255 5.91527 6.54017 5.73769 7.21504C5.63853 7.59183 5.52919 7.96615 5.44236 8.34584C5.26363 9.12758 5.09447 9.9115 4.92604 10.6956C4.83631 11.1131 4.75123 11.5317 4.67369 11.9517C4.59703 12.3668 4.53314 12.7841 4.46228 13.2004C4.40842 13.517 4.35005 13.8331 4.29821 14.1501C4.26191 14.3725 4.23505 14.5966 4.20108 14.8194C4.1671 15.0422 4.12703 15.264 4.09436 15.4869C4.05965 15.7242 4.03105 15.9624 3.99853 16.2C3.96803 16.4233 3.93595 16.6466 3.90473 16.8698C3.87816 17.0597 3.85115 17.2495 3.82516 17.4394C3.79714 17.6435 3.76824 17.8477 3.74312 18.0523C3.71975 18.2428 3.70232 18.434 3.67909 18.6246C3.65412 18.8292 3.6245 19.0332 3.59865 19.2376C3.5853 19.3425 3.57542 19.4476 3.56395 19.5527C3.53535 19.8149 3.50442 20.077 3.47858 20.3395C3.45549 20.5737 3.43966 20.8085 3.41759 21.0427C3.4054 21.1715 3.39247 21.3007 3.36982 21.4279C3.33904 21.6 3.36024 21.6338 3.5339 21.6748C3.98299 21.7805 4.43165 21.8882 4.87987 21.9974C4.90746 22.0041 4.9304 22.0298 4.95552 22.0466C4.62302 22.043 4.29052 22.0394 3.95787 22.0357C3.91446 22.0353 3.87104 22.0341 3.82763 22.034C3.23392 22.0328 2.64035 22.032 2.04664 22.0309C1.98915 22.0309 1.93179 22.0309 1.85324 22.0309C1.85324 21.9758 1.84874 21.9297 1.85397 21.8849C1.89796 21.5075 1.94341 21.1303 1.98915 20.7532C2.02966 20.419 2.07133 20.0849 2.11227 19.7506C2.11982 19.6888 2.12694 19.6268 2.13405 19.5649C2.26342 18.6817 2.38147 17.7964 2.52507 16.9155C2.69277 15.8869 2.87862 14.8611 3.06447 13.8354C3.2737 12.6811 3.52388 11.5352 3.79714 10.3944C4.17639 8.81105 4.61039 7.24336 5.16068 5.70964C5.52658 4.68963 5.94126 3.69068 6.47036 2.74283C6.84163 2.07769 7.26183 1.44695 7.81169 0.912628C8.16902 0.565462 8.5686 0.280731 9.04804 0.125225C9.26453 0.055095 9.48595 0.00471163 9.71681 0.0238776L9.71696 0.0237324Z" fill="#FFD421"/>
<path d="M19.9347 0.00189944C19.9794 0.167714 20.0235 0.333674 20.0688 0.499344C20.1104 0.651365 20.153 0.803241 20.1953 0.955117L20.1956 0.954827C20.1183 0.956424 20.0395 0.948583 19.964 0.96107C19.5846 1.0238 19.2716 1.21473 18.9948 1.47332C18.6675 1.77911 18.4081 2.13586 18.1894 2.52557C17.8864 3.0657 17.6326 3.62688 17.4206 4.20869C17.1845 4.8567 16.9838 5.51546 16.815 6.18337C16.6737 6.74237 16.5506 7.30603 16.4221 7.86823C16.3611 8.1351 16.3021 8.40256 16.2504 8.67146C16.1898 8.98697 16.137 9.30423 16.0823 9.6209C16.0398 9.86672 15.9974 10.1127 15.9585 10.3592C15.9217 10.5914 15.8898 10.8241 15.8555 11.0568C15.822 11.2846 15.7868 11.5121 15.7549 11.7402C15.7309 11.9112 15.711 12.0829 15.689 12.2542C15.6625 12.4586 15.6354 12.6631 15.6094 12.8675C15.5859 13.0532 15.5632 13.2389 15.5406 13.4248C15.515 13.6343 15.4903 13.8438 15.4641 14.0532C15.4461 14.1959 15.426 14.3382 15.4068 14.4808C15.4068 14.5001 15.4068 14.5194 15.4067 14.5389C15.3874 14.7102 15.3652 14.8814 15.3492 15.0532C15.3267 15.2968 15.3094 15.5409 15.2888 15.7847C15.2786 15.9042 15.2663 16.0234 15.2541 16.1427C15.2376 16.3048 15.2178 16.4665 15.2039 16.6287C15.1904 16.7865 15.1853 16.9452 15.1712 17.103C15.1559 17.2748 15.1303 17.4457 15.1175 17.6176C15.1025 17.8189 15.0977 18.021 15.0864 18.2225C15.0781 18.3712 15.0664 18.5196 15.0562 18.6681C15.0375 18.9411 15.019 19.2141 14.9997 19.4869C14.9893 19.6353 14.9781 19.7837 14.9656 19.9319C14.9646 19.9441 14.9501 19.9551 14.9419 19.9668C14.9419 16.5286 14.9419 13.0905 14.9408 9.65241C14.9408 9.57633 14.9244 9.50024 14.9156 9.42402C14.9348 9.38176 14.9612 9.34111 14.9723 9.29682C15.3138 7.92253 15.7122 6.56538 16.1908 5.23247C16.5586 4.20811 16.9673 3.20117 17.4925 2.24534C17.7537 1.76982 18.0414 1.31158 18.3959 0.898635C18.6079 0.651655 18.8384 0.424132 19.1172 0.252509C19.3671 0.0986005 19.6311 -0.0162502 19.9348 0.00218983L19.9347 0.00189944Z" fill="#FFD421"/>
<path d="M24.5763 19.5648C24.5546 19.3003 24.5348 19.0356 24.5104 18.7713C24.4888 18.5359 24.4622 18.3009 24.4374 18.0658C24.3803 17.5235 24.3243 16.981 24.2658 16.4389C24.216 15.9781 24.1669 15.5174 24.1113 15.0575C24.0411 14.4778 23.9662 13.8988 23.8906 13.3199C23.8331 12.8796 23.774 12.4397 23.7105 12.0002C23.6326 11.4605 23.5563 10.9204 23.4665 10.3825C23.3504 9.68764 23.2295 8.99345 23.0966 8.30159C22.8213 6.86893 22.5055 5.446 22.0212 4.06634C21.8481 3.5734 21.6483 3.09149 21.3758 2.64326C21.2573 2.44841 21.1234 2.26546 20.9572 2.10763C20.7835 1.94283 20.5837 1.83437 20.3401 1.82014C20.3306 1.78312 20.3212 1.74595 20.3118 1.70892C20.309 1.65694 20.3113 1.60394 20.3028 1.55298C20.2689 1.35319 20.2316 1.15398 20.1956 0.954479L20.1953 0.95477C20.5163 0.939088 20.8054 1.03622 21.065 1.21743C21.2265 1.32996 21.3932 1.44292 21.5282 1.58376C21.7981 1.8653 22.0429 2.17137 22.2346 2.51302C22.4187 2.84117 22.6021 3.1712 22.7611 3.51183C22.9281 3.86945 23.0708 4.23869 23.2147 4.60662C23.3234 4.88481 23.4273 5.16577 23.5152 5.45108C23.684 5.99847 23.8459 6.54804 23.9989 7.09994C24.1248 7.55411 24.2425 8.0109 24.3482 8.47016C24.4915 9.09247 24.6216 9.71798 24.7539 10.3428C24.8325 10.7137 24.9087 11.0852 24.9781 11.4579C25.0527 11.8588 25.1189 12.2613 25.1876 12.6633C25.2554 13.0604 25.3251 13.4574 25.3873 13.8554C25.442 14.206 25.4861 14.5584 25.5375 14.9095C25.5722 15.1467 25.6155 15.3827 25.6475 15.6202C25.6827 15.8817 25.7071 16.1447 25.7405 16.4065C25.7636 16.5871 25.7963 16.7666 25.8208 16.947C25.8446 17.123 25.8629 17.2997 25.8846 17.476C25.912 17.6997 25.9422 17.9231 25.9675 18.147C25.9907 18.3521 26.0073 18.5579 26.0302 18.763C26.0543 18.9775 26.083 19.1914 26.1087 19.4055C26.1214 19.5104 26.1333 19.6153 26.1427 19.7205C26.1641 19.9597 26.1816 20.1992 26.2044 20.4383C26.2181 20.5815 26.2419 20.7235 26.2558 20.8666C26.2708 21.0197 26.2799 21.1734 26.2904 21.3269C26.2933 21.3703 26.2879 21.4145 26.2937 21.4573C26.3158 21.623 26.3316 21.6375 26.4908 21.6738C26.8983 21.7667 27.3059 21.8602 27.7132 21.955C27.8007 21.9754 27.8868 22.0022 27.9735 22.026C27.6979 22.0271 27.4225 22.0291 27.1469 22.0291C26.4264 22.0294 25.7061 22.0291 24.9856 22.0285C24.9241 22.0285 24.8625 22.0234 24.7941 22.0204C24.721 21.1946 24.6486 20.3796 24.5763 19.5647V19.5648Z" fill="#FFD421"/>
<path d="M20.1956 0.954695C20.2316 1.1542 20.2689 1.35341 20.3028 1.5532C20.3115 1.60416 20.3092 1.65716 20.3118 1.70914C20.302 1.74631 20.2922 1.78362 20.2824 1.82079C19.9807 1.85274 19.7329 1.99343 19.519 2.20106C19.2661 2.44659 19.0814 2.74091 18.9198 3.05061C18.6663 3.53644 18.4808 4.04971 18.3218 4.57271C18.0222 5.5586 17.8042 6.56365 17.641 7.58017C17.5185 8.34304 17.4051 9.1075 17.303 9.87341C17.2276 10.4384 17.1706 11.0059 17.1173 11.5734C17.0374 12.4248 16.9634 13.277 16.8963 14.1296C16.8539 14.6691 16.8243 15.2098 16.7971 15.7504C16.7529 16.6338 16.7144 17.5174 16.6755 18.4013C16.6585 18.7876 16.6469 19.1741 16.6329 19.5607C16.6289 19.9356 16.6255 20.3103 16.6196 20.6851C16.6187 20.7376 16.6438 20.805 16.5653 20.8308C16.5368 20.8233 16.5082 20.8157 16.4797 20.8082C16.3331 20.7694 16.1872 20.7279 16.0399 20.6922C15.7147 20.6135 15.3883 20.539 15.0635 20.4588C15.0214 20.4484 14.9512 20.4135 14.9517 20.3913C14.9549 20.2493 14.8818 20.1086 14.9418 19.9665C14.9501 19.955 14.9645 19.944 14.9655 19.9318C14.9781 19.7835 14.9893 19.6351 14.9996 19.4868C15.0188 19.2139 15.0372 18.941 15.0561 18.668C15.0662 18.5195 15.078 18.3711 15.0863 18.2224C15.0976 18.0208 15.1024 17.8187 15.1174 17.6175C15.1301 17.4456 15.1558 17.2747 15.1711 17.1029C15.185 16.9451 15.1901 16.7864 15.2037 16.6286C15.2177 16.4664 15.2374 16.3046 15.254 16.1426C15.2662 16.0232 15.2787 15.904 15.2887 15.7845C15.3094 15.5407 15.3266 15.2967 15.3491 15.053C15.3649 14.8813 15.3871 14.7102 15.4066 14.5387C15.4215 14.5268 15.4366 14.5151 15.4516 14.5032C15.4366 14.4958 15.4217 14.4882 15.4067 14.4808C15.4259 14.3382 15.4461 14.1959 15.4639 14.0532C15.4902 13.8438 15.5149 13.6342 15.5405 13.4248C15.5631 13.2391 15.5858 13.0532 15.6093 12.8675C15.6353 12.6629 15.6626 12.4586 15.6888 12.2542C15.7109 12.0829 15.7308 11.9113 15.7548 11.7402C15.7867 11.5123 15.8218 11.2846 15.8554 11.0568C15.8897 10.8243 15.9216 10.5914 15.9583 10.3592C15.9972 10.1128 16.0396 9.86688 16.0822 9.62092C16.1369 9.30424 16.1896 8.98713 16.2503 8.67147C16.302 8.40271 16.3611 8.13526 16.4219 7.86825C16.5503 7.30604 16.6734 6.74239 16.8148 6.18338C16.9837 5.51547 17.1844 4.85672 17.4205 4.2087C17.6325 3.6269 17.8863 3.06557 18.1893 2.52558C18.408 2.13587 18.6674 1.77912 18.9947 1.47334C19.2714 1.21474 19.5845 1.02366 19.9639 0.961083C20.0394 0.948597 20.1182 0.956437 20.1955 0.95484L20.1956 0.954695Z" fill="#FEBD12"/>
<path d="M14.9419 19.9664C14.8818 20.1085 14.955 20.2492 14.9518 20.3912C14.9514 20.4134 15.0215 20.4483 15.0636 20.4587C15.3885 20.5389 15.7148 20.6134 16.04 20.6921C16.1874 20.7278 16.3333 20.7692 16.4798 20.8081C16.4796 20.8156 16.4793 20.823 16.4788 20.8306C15.6834 20.8348 14.888 20.8381 14.0925 20.8441C13.8759 20.8457 13.6594 20.856 13.4428 20.8611C13.3957 20.8621 13.3487 20.8573 13.2843 20.8545C13.2729 20.4184 13.2617 19.9912 13.2504 19.5642C13.2377 19.1682 13.225 18.7721 13.2125 18.376C13.2093 18.2745 13.2072 18.173 13.2032 18.0715C13.1817 17.5403 13.1628 17.009 13.1368 16.4779C13.1121 15.9761 13.0837 15.4743 13.0499 14.973C13.0053 14.3128 12.9575 13.6529 12.9039 12.9934C12.8618 12.4738 12.8177 11.954 12.7589 11.4359C12.6635 10.5967 12.5598 9.75844 12.4512 8.9208C12.3276 7.96773 12.1615 7.02148 11.9519 6.08336C11.7505 5.18198 11.5141 4.29076 11.142 3.44165C10.9804 3.07285 10.7929 2.71857 10.5324 2.40828C10.4611 2.32334 10.3842 2.24174 10.3014 2.16827C10.0855 1.97647 9.83578 1.85929 9.54248 1.84884C9.54248 1.57877 9.54248 1.30871 9.54248 1.03327C9.73066 0.981433 9.89429 1.03269 10.0556 1.09614C10.4635 1.25644 10.7646 1.55017 11.0392 1.87948C11.4422 2.36298 11.7136 2.92112 11.9726 3.48811C12.2054 3.99775 12.3931 4.52409 12.5659 5.0558C12.801 5.77903 12.9987 6.51314 13.1701 7.25394C13.3108 7.86202 13.448 8.47127 13.5702 9.08327C13.6726 9.59582 13.7509 10.1132 13.8407 10.6283C13.886 10.8881 13.9376 11.147 13.9785 11.4074C14.0241 11.6964 14.0597 11.9869 14.1017 12.2764C14.1568 12.656 14.2165 13.0348 14.2695 13.4145C14.2959 13.6046 14.3097 13.7962 14.3333 13.9867C14.3566 14.1769 14.3855 14.3666 14.4109 14.5566C14.4243 14.6565 14.4366 14.7566 14.4469 14.8567C14.4773 15.1526 14.5044 15.449 14.5368 15.7448C14.5614 15.9687 14.5948 16.1917 14.6196 16.4156C14.6348 16.5539 14.6389 16.6936 14.6522 16.8323C14.6675 16.9897 14.6885 17.1466 14.7054 17.3039C14.7176 17.4184 14.7288 17.5332 14.7372 17.6481C14.749 17.8112 14.7548 17.9747 14.7687 18.1375C14.7816 18.2902 14.8018 18.4425 14.8188 18.595C14.821 18.6141 14.8243 18.6332 14.8253 18.6525C14.8355 18.8447 14.8419 19.0371 14.856 19.2289C14.8731 19.4635 14.8962 19.6976 14.9181 19.9318C14.9193 19.944 14.9338 19.9549 14.9421 19.9665L14.9419 19.9664Z" fill="#FFD421"/>
<path d="M16.4789 20.8306C16.4793 20.8231 16.4796 20.8157 16.4799 20.8081C16.5084 20.8157 16.537 20.8232 16.5654 20.8308C16.5365 20.8308 16.5078 20.8306 16.4789 20.8305V20.8306Z" fill="#FDBA23"/>
<path d="M15.4066 14.4806C15.4216 14.488 15.4366 14.4956 15.4515 14.503C15.4366 14.5149 15.4214 14.5266 15.4065 14.5385C15.4065 14.5192 15.4065 14.4999 15.4066 14.4805V14.4806Z" fill="#FEBD12"/>
<path d="M20.2826 1.82088C20.2923 1.78371 20.3022 1.7464 20.3119 1.70923C20.3214 1.74625 20.3308 1.78342 20.3402 1.82045C20.3211 1.82059 20.3019 1.82074 20.2826 1.82088Z" fill="#FEBD12"/>
<path d="M9.89722 26.0095V24.4077C10.15 24.4106 10.3993 24.3827 10.6454 24.4523C11.0858 24.5765 11.2454 24.9466 11.1877 25.3526C11.1294 25.7628 10.8835 25.985 10.466 26.0079C10.2794 26.0182 10.0918 26.0096 9.89736 26.0096L9.89722 26.0095Z" fill="#EF4043"/>
<path d="M23.3637 25.448C23.3904 25.3243 23.4032 25.2032 23.4435 25.0921C23.5052 24.9228 23.6451 24.8414 23.8295 24.8461C24.0043 24.8506 24.1393 24.9254 24.2022 25.0928C24.2918 25.3314 24.2921 25.5749 24.1988 25.8127C24.1331 25.9804 23.9935 26.0517 23.8209 26.0517C23.6481 26.0517 23.5061 25.981 23.4457 25.8111C23.4045 25.6953 23.3901 25.5698 23.3635 25.448H23.3637Z" fill="#EF4145"/>
<path d="M14.2932 25.3761C14.2758 25.4949 14.2693 25.6165 14.2386 25.7318C14.1823 25.9441 14.0298 26.0563 13.8171 26.0614C13.5892 26.0669 13.4374 25.9668 13.3685 25.7494C13.2921 25.509 13.293 25.2633 13.3637 25.0221C13.4276 24.8036 13.581 24.6977 13.8052 24.6995C14.0265 24.7012 14.1775 24.8151 14.2418 25.0307C14.2542 25.0722 14.2655 25.1147 14.27 25.1576C14.2776 25.2295 14.2792 25.3021 14.2832 25.3742L14.2934 25.3762L14.2932 25.3761Z" fill="#EF4145"/>
<path d="M19.9587 25.517C19.9891 25.8328 19.8654 26.0225 19.6017 26.0765C19.4601 26.1055 19.3239 26.0378 19.2955 25.9243C19.2528 25.754 19.3235 25.6078 19.4775 25.5665C19.5703 25.5417 19.667 25.5292 19.7627 25.5182C19.824 25.5111 19.8867 25.5169 19.9586 25.5169L19.9587 25.517Z" fill="#EF4346"/>
</g>
<defs>
<clipPath id="clip0_1_4508">
<rect width="30" height="29.3051" fill="white"/>
</clipPath>
</defs>
</svg>
